<svg width="32" height="32" viewBox="0 0 32 32" fill="none" xmlns="http://www.w3.org/2000/svg">
  <defs>
    <style>
      .tent-stripe { fill: #FF1744; }
      .tent-stripe-2 { fill: #FDD835; }
      .tent-pole { fill: #8B4513; }
      .microphone-stand { fill: #C0C0C0; }
      .microphone-head { fill: #333333; }
    </style>
  </defs>
  
  <!-- Tendone da circo (strisce rosse e gialle) -->
  <!-- Striscia rossa sinistra -->
  <path class="tent-stripe" d="M 2 16 L 8 6 L 8 26 Q 5 27 2 24 Z" />
  <!-- Striscia gialla centro-sinistra -->
  <path class="tent-stripe-2" d="M 8 6 L 12 4 L 12 28 L 8 26 Z" />
  <!-- Striscia rossa centro -->
  <path class="tent-stripe" d="M 12 4 L 16 3 L 16 29 L 12 28 Z" />
  <!-- Striscia gialla centro-destra -->
  <path class="tent-stripe-2" d="M 16 3 L 20 4 L 20 28 L 16 29 Z" />
  <!-- Striscia rossa destra -->
  <path class="tent-stripe" d="M 20 4 L 24 6 L 24 26 Q 27 27 30 24 L 24 6 Z" />
  
  <!-- Palo del tendone sinistra -->
  <rect class="tent-pole" x="6" y="24" width="2" height="6" rx="1" />
  <!-- Palo del tendone destra -->
  <rect class="tent-pole" x="24" y="24" width="2" height="6" rx="1" />
  
  <!-- Asta del microfono -->
  <rect class="microphone-stand" x="14.5" y="12" width="3" height="14" rx="1.5" />
  
  <!-- Testa del microfono -->
  <circle class="microphone-head" cx="16" cy="11" r="3.5" />
  <!-- Griglia del microfono -->
  <circle cx="16" cy="11" r="2.5" fill="none" stroke="#666" stroke-width="0.5" />
  <circle cx="16" cy="11" r="1.5" fill="none" stroke="#666" stroke-width="0.5" />
</svg>
